# xmcd
#
# Track frame offsets: 
#        182
#        15050
#        29854
#        44522
#        58474
#        73563
#        87899
#        100669
#        110581
#        122177
#        136473
#        150575
#        163268
#        176995
#        187185
#        200987
#        213780
#        226620
#        238923
#        251365
#        265270
#        279112
#
# Disc length: 3917 seconds
#
# Revision: 1
# Processed by: cddbd v1.5.2PL0 Copyright (c) Steve Scherf et al.
# Submitted via: ExactAudioCopyFreeDBPlugin 1.0
#
DISCID=430f4b16
DTITLE=Buddy Johnson - The Chronological Buddy Johnson and His Orchest
DTITLE=ra, 1947-1949
DYEAR=2000
DGENRE=Rhythm and Blues
TTITLE0=Far Cry
TTITLE1=Serves Me Right
TTITLE2=You Can't Tell Who's Loving Who
TTITLE3=Li'l Dog
TTITLE4=I Don't Care Who Knows
TTITLE5=I'm Tired of Crying Over You
TTITLE6=You Had Better Change Your Ways
TTITLE7=If I Ever Find You, Baby
TTITLE8=It Was Swell Knowing You
TTITLE9=Somebody's Knocking at My Door
TTITLE10=Someone So Sweet as You
TTITLE11=Pullamo
TTITLE12=As I Love You
TTITLE13=Did You See Jackie Robinson Hit That Ball?
TTITLE14=Lovely in Her Evening Gown
TTITLE15=Down Yonder
TTITLE16=Because - Part 1
TTITLE17=Because - Part 2
TTITLE18=That's What My Baby Says
TTITLE19=Keep Me Close to You
TTITLE20=Tell Me What They're Saying
TTITLE21=Shake 'Em Up
EXTD=
EXTT0=
EXTT1=
EXTT2=
EXTT3=
EXTT4=
EXTT5=
EXTT6=
EXTT7=
EXTT8=
EXTT9=
EXTT10=
EXTT11=
EXTT12=
EXTT13=
EXTT14=
EXTT15=
EXTT16=
EXTT17=
EXTT18=
EXTT19=
EXTT20=
EXTT21=
PLAYORDER=
